<svg width="120" height="100" viewBox="0 0 100 100" fill="none" xmlns="http://www.w3.org/2000/svg" role="img">
    <title>sjekkliste</title>
              <path fill-rule="evenodd" clip-rule="evenodd" d="M49.4375 100C77.9147 100 101 77.6142 101 50C101 22.3858 77.9147 0 49.4375 0C20.9603 0 -2.125 22.3858 -2.125 50C-2.125 77.6142 20.9603 100 49.4375 100Z" fill="#99C2E8" />
              <mask id="mask0" x="-2" y="0" width="104" height="100">
                <path fill-rule="evenodd" clip-rule="evenodd" d="M49.5625 100C78.0397 100 101.125 77.6142 101.125 50C101.125 22.3858 78.0397 0 49.5625 0C21.0853 0 -2 22.3858 -2 50C-2 77.6142 21.0853 100 49.5625 100Z" fill="#99C2E8" />
              </mask>
              <g mask="url(#mask0)" />
              <path fill-rule="evenodd" clip-rule="evenodd" d="M79.49 20H32.508C30.569 20 29 21.5869 29 23.5475V83.4535C29 83.8192 29.055 84.1747 29.157 84.5061C29.328 85.0626 29.632 85.5586 30.03 85.9616C30.107 86.0384 30.191 86.1182 30.28 86.1889C30.797 86.6232 31.443 86.9061 32.148 86.9808C32.268 86.9929 32.388 87 32.508 87H79.49C81.429 87 83 85.4111 83 83.4535V23.5475C83 21.5869 81.429 20 79.49 20Z" fill="#4F4F4F" />
              <path fill-rule="evenodd" clip-rule="evenodd" d="M34 34.7714V79.1195C34 80.7103 35.2508 82 36.7943 82H74.2073C75.7492 82 77 80.7103 77 79.1195V27.8805C77 26.2897 75.7492 25 74.2073 25H44.3519L34 34.7714Z" fill="white" />
              <path fill-rule="evenodd" clip-rule="evenodd" d="M44.3519 25V31.8052C44.3519 33.4437 43.0204 34.7714 41.3773 34.7714H34L44.3519 25Z" fill="#C9C9C9" />
              <path fill-rule="evenodd" clip-rule="evenodd" d="M49.1296 46.9857H67.4445V45.3572H49.1296V46.9857Z" fill="#A0A0A0" />
              <path fill-rule="evenodd" clip-rule="evenodd" d="M49.1296 52.6857H67.4445V51.0571H49.1296V52.6857Z" fill="#A0A0A0" />
              <path fill-rule="evenodd" clip-rule="evenodd" d="M49.1296 57.5714H67.4445V55.9429H49.1296V57.5714Z" fill="#A0A0A0" />
              <path fill-rule="evenodd" clip-rule="evenodd" d="M49.1296 63.2714H67.4445V61.6428H49.1296V63.2714Z" fill="#A0A0A0" />
              <path fill-rule="evenodd" clip-rule="evenodd" d="M47.537 43.7323H46.6944H44.3982H43.5555V44.6216V46.9144V47.8037H44.3982H46.6944H47.537V46.9144V44.6216V43.7323ZM44.3982 46.9144H46.6944V44.6216H44.3982V46.9144Z" fill="#A0A0A0" />
              <path fill-rule="evenodd" clip-rule="evenodd" d="M47.537 49.295H46.6944H44.3982H43.5555V50.1846V52.4769V53.3665H44.3982H46.6944H47.537V52.4769V50.1846V49.295ZM44.3982 52.4769H46.6944V50.1846H44.3982V52.4769Z" fill="#A0A0A0" />
              <path fill-rule="evenodd" clip-rule="evenodd" d="M47.537 54.8579H46.6944H44.3982H43.5555V55.7476V58.0396V58.9293H44.3982H46.6944H47.537V58.0396V55.7476V54.8579ZM44.3982 58.0396H46.6944V55.7476H44.3982V58.0396Z" fill="#A0A0A0" />
              <path fill-rule="evenodd" clip-rule="evenodd" d="M47.537 60.4215H46.6944H44.3982H43.5555V61.3111V63.6034V64.4929H44.3982H46.6944H47.537V63.6034V61.3111V60.4215ZM44.3982 63.6034H46.6944V61.3111H44.3982V63.6034Z" fill="#A0A0A0" />
              <path d="M44.7844 45.1704L46.5536 42.1L47.5371 43.1241L44.8427 47.8L42.7593 44.5983L43.6956 43.4972L44.7844 45.1704Z" fill="#262626" />
              <path d="M46.3552 46.9857L47.5371 47.8798L44.8661 52.6857L42.7593 49.329L43.8957 48.3581L44.7956 49.7919L46.3552 46.9857Z" fill="#262626" />
              <path fill-rule="evenodd" clip-rule="evenodd" d="M56.5015 22.2922C55.8902 22.2922 55.3957 21.7812 55.3957 21.1471C55.3957 20.513 55.8902 19.999 56.5015 19.999C57.1098 19.999 57.6062 20.513 57.6062 21.1471C57.6062 21.7812 57.1098 22.2922 56.5015 22.2922ZM63.3276 17.6038H59.2142V16.8152C59.2142 15.2602 57.9985 14 56.5015 14C54.9996 14 53.7868 15.2602 53.7868 16.8152V17.6038H49.6734C47.6459 17.6038 46 19.3113 46 21.4157V26H67V21.4157C67 19.3113 65.355 17.6038 63.3276 17.6038Z" fill="#262626" />
              <path fill-rule="evenodd" clip-rule="evenodd" d="M-23 65.5479H8.96875V46.0958H-23V65.5479Z" fill="#CCDEE6" />
              <path fill-rule="evenodd" clip-rule="evenodd" d="M3.8125 65.5479H10V46.0958H3.8125V65.5479Z" fill="#669DB4" />
              <path fill-rule="evenodd" clip-rule="evenodd" d="M6.6058 63.4737C7.31015 63.4737 7.8794 62.9349 7.8794 62.2706C7.8794 61.6083 7.31015 61.0704 6.6058 61.0704C5.90146 61.0704 5.33118 61.6083 5.33118 62.2706C5.33118 62.9349 5.90146 63.4737 6.6058 63.4737" fill="#262626" />
              <path fill-rule="evenodd" clip-rule="evenodd" d="M10 62.5504H12.809C13.5768 62.5504 14.5948 65.5479 17.2188 65.5479C19.8427 65.5479 30.6693 65.5479 30.6693 65.5479L30.625 47.0685C30.625 47.0685 30.2279 47.0685 29.5938 47.0685C28.9596 47.0685 29.1966 46.1669 30.0461 45.6466C30.8998 45.1253 34.9003 43.5633 34.9003 43.5633C34.9003 43.5633 39.6222 41.4819 38.7727 39.5562C37.9222 37.6362 34.8156 38.5165 34.8156 38.5165C34.8156 38.5165 29.9159 39.4959 27.5803 40.0395C24.6246 40.7252 21.5924 42.1647 19.4056 43.644C17.2187 45.1233 14.4098 48.0411 13.0938 48.0411C11.7777 48.0411 10 48.0411 10 48.0411L10 62.5504Z" fill="#F1F1F1" />
            </svg>